<svg xmlns="http://www.w3.org/2000/svg" viewBox="0 0 90 90">
  <defs>
    <linearGradient id="leadnest-favicon-gradient" x1="12" x2="76" y1="74" y2="14" gradientUnits="userSpaceOnUse">
      <stop offset="0" stop-color="#1d4ed8" />
      <stop offset="0.55" stop-color="#2563eb" />
      <stop offset="1" stop-color="#2dd4bf" />
    </linearGradient>
  </defs>
  <path
    d="M16 54c6.7 16 25.4 24.9 44.8 20.6 10.2-2.2 16.9-7.1 21.2-13.9-4 12.7-14.8 22-29.5 24.7C34.7 88.6 18.2 79.8 11 63.8"
    fill="none"
    opacity="0.95"
    stroke="url(#leadnest-favicon-gradient)"
    stroke-linecap="round"
    stroke-width="6.2"
  />
  <path
    d="M19.5 45.5c9.8-10.9 23.6-15.4 39.6-12.2 9.8 1.9 17 6.4 23 13.2"
    fill="none"
    opacity="0.9"
    stroke="url(#leadnest-favicon-gradient)"
    stroke-linecap="round"
    stroke-width="5.5"
  />
  <path
    d="M22.5 59.5c10.4 7.6 24.6 9.9 37.9 6.6 5.5-1.4 10.1-3.6 13.6-7"
    fill="none"
    opacity="0.85"
    stroke="url(#leadnest-favicon-gradient)"
    stroke-linecap="round"
    stroke-width="5.5"
  />
  <path
    d="M31.5 30.7c8.8 0 15 1.4 20.5 5.4 1.2.9 1 2.8-.4 3.4l-7 3.2 10 19.8a3.2 3.2 0 0 0 4.5 1.2l8.4-4.8c1.6-.9 3.7.2 3.7 2.1v14.6c0 2-2.1 3.3-3.9 2.3-17.7-9-31.4-22.7-39.7-40.4-0.8-1.8 0.5-4 2.4-4.2l1.5-.1Z"
    fill="url(#leadnest-favicon-gradient)"
    opacity="0.16"
  />
  <path
    d="m49 42.2 11.5-21.4-5.2 1.2c-1.9.4-3.4-1.7-2.4-3.4l8.4-13.7 18 8.6-7.4 14.6c-.9 1.8-3.5 1.8-4.5 0l-2.3-4.1-13.1 24.5"
    fill="none"
    stroke="url(#leadnest-favicon-gradient)"
    stroke-linecap="round"
    stroke-linejoin="round"
    stroke-width="6.2"
  />
  <circle cx="83" cy="53.5" r="2.3" fill="#22d3ee" />
</svg>
